<?xml version="1.0" standalone="no"?>
<!DOCTYPE svg PUBLIC "-//W3C//DTD SVG 20010904//EN"
 "http://www.w3.org/TR/2001/REC-SVG-20010904/DTD/svg10.dtd">
<svg version="1.0" xmlns="http://www.w3.org/2000/svg"
 width="39" height="35" viewBox="0 0 442.000000 442.000000"
 preserveAspectRatio="xMidYMid meet">

<g transform="translate(0.000000,442.000000) scale(0.100000,-0.100000)"
fill="#002fa7" stroke="none">
<path d="M405 4020 c-3 -5 -46 -10 -96 -10 l-89 0 0 -1910 0 -1910 1914 0
1914 0 6 193 c4 105 6 968 4 1917 l-3 1725 -1822 3 c-1210 1 -1824 -1 -1828
-8z m1903 -385 c23 -4 45 -11 48 -16 3 -5 14 -9 26 -9 57 0 278 -156 278 -197
0 -6 4 -13 8 -15 13 -5 62 -114 62 -137 0 -15 21 -34 72 -68 136 -86 248 -223
313 -378 16 -38 39 -76 50 -84 36 -25 160 -156 175 -186 8 -17 18 -32 21 -35
8 -8 47 -109 63 -165 8 -27 17 -92 21 -143 7 -88 9 -93 34 -107 15 -7 44 -33
65 -57 49 -57 48 -55 77 -118 57 -120 74 -194 74 -320 0 -101 -2 -108 -38
-182 -21 -44 -51 -89 -71 -105 -23 -19 -38 -43 -46 -73 -6 -25 -16 -53 -21
-62 -5 -10 -9 -23 -9 -29 0 -23 -73 -165 -116 -224 -23 -33 -64 -81 -91 -107
-53 -51 -169 -127 -223 -147 -19 -7 -44 -17 -55 -21 -27 -11 -65 -19 -170 -37
-253 -41 -380 -52 -680 -59 -316 -8 -492 5 -765 58 -58 12 -120 23 -138 25
-18 3 -35 9 -38 14 -3 5 -12 9 -21 9 -8 0 -50 17 -92 37 -59 29 -96 57 -166
128 -115 115 -171 217 -225 405 -8 27 -30 63 -55 90 -51 55 -82 118 -101 207
-13 60 -12 79 1 158 32 187 71 272 172 372 70 70 73 74 73 120 0 58 17 167 31
208 49 135 134 255 232 329 21 15 43 40 48 54 5 15 31 70 57 122 38 77 63 111
132 181 47 47 112 102 145 122 54 32 62 41 74 84 8 26 24 66 35 88 25 46 143
175 161 175 8 0 15 4 17 8 7 19 124 64 233 91 41 10 248 7 323 -4z"/>
<path d="M2045 3574 c-11 -3 -47 -9 -80 -16 -124 -23 -237 -97 -287 -188 -22
-41 -41 -110 -30 -110 2 0 30 6 61 14 265 64 560 64 844 -1 37 -8 69 -14 71
-12 6 6 -27 104 -36 107 -4 2 -8 9 -8 15 -1 39 -129 132 -220 160 -102 32
-243 45 -315 31z"/>
<path d="M1980 3235 c-58 -6 -118 -15 -135 -19 -16 -4 -50 -12 -75 -18 -118
-27 -260 -85 -314 -127 -81 -64 -130 -121 -162 -187 -41 -85 -44 -108 -11
-101 117 26 265 53 427 77 119 17 527 24 685 11 228 -20 312 -31 480 -66 149
-32 135 -33 124 11 -60 234 -319 380 -749 423 -119 13 -126 12 -270 -4z"/>
<path d="M1765 2789 c-81 -7 -175 -18 -275 -35 -19 -3 -82 -16 -140 -30 -161
-39 -186 -51 -271 -134 -88 -86 -132 -178 -150 -308 -6 -51 -9 -95 -6 -98 5
-6 41 0 182 28 28 5 70 14 95 19 25 4 115 18 200 29 596 79 937 80 1495 4 61
-8 128 -19 150 -24 22 -5 67 -14 100 -20 33 -7 82 -19 109 -26 84 -24 86 -23
86 47 0 106 -33 200 -104 297 -98 133 -209 181 -536 232 -182 29 -702 39 -935
19z"/>
<path d="M1770 2209 c-313 -22 -514 -46 -595 -69 -16 -5 -50 -14 -75 -21 -25
-7 -83 -30 -130 -53 -145 -68 -237 -181 -276 -336 -28 -110 -8 -216 62 -331
25 -40 89 -75 163 -89 25 -5 57 -11 71 -14 26 -5 115 -18 235 -36 99 -14 278
-30 428 -38 107 -6 127 -5 127 8 0 8 -5 62 -12 122 -38 339 96 537 362 538
191 0 309 -89 355 -270 13 -52 16 -95 12 -210 -3 -80 -8 -155 -12 -167 -7 -23
-6 -23 75 -23 46 0 121 4 169 10 47 5 151 17 231 25 155 17 249 30 318 45 23
6 52 10 65 10 12 0 44 8 71 17 86 31 136 108 166 255 28 138 -59 335 -190 429
-43 31 -151 83 -205 99 -179 51 -316 73 -590 91 -211 14 -684 18 -825 8z"/>
<path d="M853 1216 c4 -10 10 -30 14 -44 10 -40 71 -151 111 -202 115 -144
279 -243 477 -285 262 -55 1027 -57 1305 -3 288 56 495 201 610 426 16 33 33
74 37 92 6 31 5 33 -18 26 -202 -58 -879 -126 -1254 -126 -381 0 -946 57
-1259 126 -25 6 -28 4 -23 -10z"/>
</g>
</svg>
