<svg xmlns="http://www.w3.org/2000/svg" version="1.1" xmlns:xlink="http://www.w3.org/1999/xlink" xmlns:svgjs="http://svgjs.dev/svgjs" width="1000" height="1000" viewBox="0 0 1000 1000"><rect width="1000" height="1000" fill="#ffffff"></rect><g transform="matrix(0.7,0,0,0.7,149.57575757575756,381.1480385672031)"><svg viewBox="0 0 396 135" data-background-color="#ffffff" preserveAspectRatio="xMidYMid meet" height="340" width="1000" xmlns="http://www.w3.org/2000/svg" xmlns:xlink="http://www.w3.org/1999/xlink"><g id="tight-bounds" transform="matrix(1,0,0,1,0.2400000000000091,-0.08397145618664581)"><svg viewBox="0 0 395.52 135.16794291237332" height="135.16794291237332" width="395.52"><g><svg viewBox="0 0 618.6658969842252 211.42747938257483" height="135.16794291237332" width="395.52"><g transform="matrix(1,0,0,1,223.14589698422526,59.69712463258254)"><svg viewBox="0 0 395.52 92.03323011740974" height="92.03323011740974" width="395.52"><g id="textblocktransform"><svg viewBox="0 0 395.52 92.03323011740974" height="92.03323011740974" width="395.52" id="textblock"><g><svg viewBox="0 0 395.52 49.63832664756447" height="49.63832664756447" width="395.52"><g transform="matrix(1,0,0,1,0,0)"><svg width="395.52" viewBox="3.5 -32.29999923706055 261.7300109863281 32.849998474121094" height="49.63832664756447" data-palette-color="#002fa7"><path d="M22.25-12.75Q26.4-6.3 29.75-1.9L29.75-1.9 29.65-1Q25.85 0.25 21.6 0.55L21.6 0.55 20.8-0.1Q17.8-5.7 15.6-10.35L15.6-10.35 11.35-10.35 11.65 0 3.5 0 3.95-9.55 3.5-32.25 17.1-32.3Q22.35-32.3 25.18-29.78 28-27.25 28-22.55L28-22.55Q28-19.6 26.5-17.05 25-14.5 22.25-12.75L22.25-12.75ZM11.7-26.35L11.5-16.45 15.85-16.25Q17.7-16.95 18.57-18.3 19.45-19.65 19.45-21.8L19.45-21.8Q19.45-24.15 18.23-25.28 17-26.4 14.4-26.5L14.4-26.5 11.7-26.35ZM47.1-6.3L55.2-6.6 55.65-6 55.15 0 33.85 0 34.3-9.55 33.85-32.25 55.45-32.25 55.9-31.65 55.35-25.65 47.5-25.95 42-25.9 41.9-19.45 47.15-19.45 52.4-19.6 52.85-19 52.35-13 46.6-13.15 41.75-13.15 41.7-10.35 41.8-6.35 47.1-6.3ZM76.9-32.25L86.35 0 78.1 0 77.25-4.65 76.8-6.5 71-6.6 66-6.45 65.6-5.15 64.7 0 56.75 0 67.15-32.25 76.9-32.25ZM71.55-12.5L75.25-12.6 72.1-24.85 71.6-24.85 67.85-12.6 71.55-12.5ZM108.49-6.65L108.99-6.05 108.44 0 90.29 0 90.74-9.55 90.29-32.25 98.54-32.25 98.09-10.35 98.24-6.65 108.49-6.65ZM130.14-32.25L130.59-31.65 130.14-25.7 123.84-26 122.44-26 122.19-10.35 122.49 0 114.39 0 114.84-9.55 114.59-26 113.09-26 106.74-25.7 106.24-26.3 106.74-32.25 130.14-32.25ZM148.89-10.7L148.79-8.75 149.14 0 141.04 0 141.44-8.75 141.39-10.5 131.09-32.25 139.64-32.25 140.39-29.85 145.09-18.6 145.64-18.6 150.94-29.55 151.94-32.25 160.24-32.25 148.89-10.7ZM191.63-32.25L191.19-10.35 191.49 0 183.38 0 183.78-9.55 183.74-12.8 177.23-12.85 171.48-12.7 171.44-10.35 171.73 0 163.63 0 164.03-9.55 163.63-32.25 171.84-32.25 171.59-19.4 177.73-19.3 183.63-19.4 183.38-32.25 191.63-32.25ZM206.68-32.25L206.23-10.35 206.53 0 198.38 0 198.83-9.55 198.38-32.25 206.68-32.25ZM239.98-32.25L229.58 0 219.83 0 210.38-32.25 218.63-32.25 219.48-27.55 224.63-7.4 225.13-7.4 231.13-27.1 232.03-32.25 239.98-32.25ZM256.43-6.3L264.53-6.6 264.98-6 264.48 0 243.18 0 243.63-9.55 243.18-32.25 264.78-32.25 265.23-31.65 264.68-25.65 256.83-25.95 251.33-25.9 251.23-19.45 256.48-19.45 261.73-19.6 262.18-19 261.68-13 255.93-13.15 251.08-13.15 251.03-10.35 251.13-6.35 256.43-6.3Z" opacity="1" transform="matrix(1,0,0,1,0,0)" fill="#000000" class="undefined-text-0" data-fill-palette-color="primary" id="text-0"></path></svg></g></svg></g><g transform="matrix(1,0,0,1,0,61.3567442492149)"><svg viewBox="0 0 161.44093225116225 30.676485868194842" height="30.676485868194842" width="161.44093225116225"><g transform="matrix(1,0,0,1,0,0)"><svg width="161.44093225116225" viewBox="4.599999904632568 -36 238.37998962402344 45.29999923706055" height="30.676485868194842" data-palette-color="#0080ff"><path d="M29.95-0.05Q29.85 0 29.5 0.08 29.15 0.15 28.7 0.15L28.7 0.15Q27.15 0.15 25.98-1.23 24.8-2.6 24.8-6.35L24.8-6.35Q24.8-12.35 22.7-14.33 20.6-16.3 18.35-16.3L18.35-16.3 7.3-16.3 7.3 0 4.6 0 4.6-34.3 18.55-34.3Q21-34.3 23.18-33.23 25.35-32.15 26.7-30.23 28.05-28.3 28.05-25.8L28.05-25.8Q28.05-24 27.25-22.25 26.45-20.5 25.03-19.25 23.6-18 21.9-17.7L21.9-17.7 21.9-17.45Q21.9-17.7 23.43-16.85 24.95-16 26.18-13.83 27.4-11.65 27.4-7.65L27.4-7.65Q27.4-4.8 27.75-3.48 28.1-2.15 28.48-1.83 28.85-1.5 29.95-1L29.95-1 29.95-0.05ZM18.7-18.7Q20.5-18.7 22.05-19.6 23.6-20.5 24.5-22.03 25.4-23.55 25.4-25.35L25.4-25.35Q25.4-27.15 24.5-28.65 23.6-30.15 22.08-31.03 20.55-31.9 18.7-31.9L18.7-31.9 7.3-31.9 7.3-18.7 18.7-18.7ZM56.4-9.45Q56.4-6.35 55.07-4.1 53.75-1.85 51.5-0.68 49.25 0.5 46.45 0.5L46.45 0.5Q43.3 0.5 40.87-1.03 38.45-2.55 37.1-5.45 35.75-8.35 35.75-12.4L35.75-12.4 35.75-13.15Q35.75-17.2 37.07-20.1 38.4-23 40.82-24.53 43.25-26.05 46.4-26.05L46.4-26.05Q49.25-26.05 51.52-24.83 53.8-23.6 55.1-21.28 56.4-18.95 56.4-15.7L56.4-15.7 56.4-12.5 38.3-12.5 38.3-12.1Q38.3-7.1 40.57-4.45 42.85-1.8 46.45-1.8L46.45-1.8Q49.65-1.8 51.77-3.75 53.9-5.7 53.9-9.45L53.9-9.45 56.4-9.45ZM46.4-23.75Q43.05-23.75 40.85-21.45 38.65-19.15 38.35-14.8L38.35-14.8 53.9-14.8 53.9-15.7Q53.9-19.6 51.77-21.68 49.65-23.75 46.4-23.75L46.4-23.75ZM83.34-3.45Q83.34-1.8 84.7-1.8L84.7-1.8Q85.84-1.8 87.2-2.6L87.2-2.6 87.2-0.45Q85.8 0.5 84 0.5L84 0.5Q82.2 0.5 81.5-0.83 80.8-2.15 80.8-4.45L80.8-4.45Q79.25-1.9 76.92-0.7 74.59 0.5 71.45 0.5L71.45 0.5Q67.9 0.5 65.65-1.13 63.4-2.75 63.4-6.65L63.4-6.65Q63.4-10.2 65.52-11.98 67.65-13.75 71.27-14.28 74.9-14.8 80.8-14.8L80.8-14.8 80.8-18Q80.8-21.2 79.27-22.48 77.75-23.75 74.15-23.75L74.15-23.75Q70.84-23.75 68.84-22.48 66.84-21.2 66.84-18.55L66.84-18.55 66.84-17.75 64.4-17.75Q64.3-18.55 64.3-19.05L64.3-19.05Q64.3-22.3 67.07-24.18 69.84-26.05 74.15-26.05L74.15-26.05Q78.8-26.05 81.07-24.2 83.34-22.35 83.34-18.5L83.34-18.5 83.34-3.45ZM80.8-12.5Q75.5-12.5 72.47-12.15 69.45-11.8 67.7-10.53 65.95-9.25 65.95-6.6L65.95-6.6Q65.95-4.1 67.37-2.95 68.8-1.8 71.95-1.8L71.95-1.8Q74.2-1.8 76.22-2.8 78.25-3.8 79.52-5.83 80.8-7.85 80.8-10.8L80.8-10.8 80.8-12.5ZM97.14 0L94.59 0 94.59-36 97.14-36 97.14 0ZM117.09-0.35Q116.44 0.05 115.52 0.28 114.59 0.5 113.69 0.5L113.69 0.5Q111.39 0.5 109.99-0.9 108.59-2.3 108.59-5.05L108.59-5.05 108.59-23.25 105.79-23.25 105.79-25.55 108.59-25.55 109.49-33.7 111.14-33.7 111.14-25.55 117.09-25.55 117.09-23.25 111.14-23.25 111.14-5.15Q111.14-3.15 111.92-2.48 112.69-1.8 113.99-1.8L113.99-1.8Q114.54-1.8 115.49-2.05 116.44-2.3 117.09-2.6L117.09-2.6 117.09-0.35ZM134.34-0.65Q133.84 0.55 133.64 1.15L133.64 1.15Q132.54 4.05 131.71 5.65 130.89 7.25 129.61 8.28 128.34 9.3 126.44 9.3L126.44 9.3Q124.84 9.3 123.29 8.6L123.29 8.6 123.29 6.3Q124.94 7 125.99 7L125.99 7Q127.29 7 128.19 6.25 129.09 5.5 129.59 4.55 130.09 3.6 130.69 2.05L130.69 2.05 131.69-0.4 121.54-25.55 124.29-25.55 132.99-3.8 133.19-3.8 141.94-25.55 144.44-25.55 134.34-0.65ZM175.09 0L172.39 0 172.39-16.3 153.84-16.3 153.84 0 151.14 0 151.14-34.3 153.84-34.3 153.84-18.7 172.39-18.7 172.39-34.3 175.09-34.3 175.09 0ZM185.23-33.3L185.23-36 188.18-36 188.18-33.3 185.23-33.3ZM187.98 0L185.43 0 185.43-25.55 187.98-25.55 187.98 0ZM217.68-25.55L207.33 0 205.08 0 194.78-25.55 197.53-25.55 206.28-3.7 206.38-3.7 215.18-25.55 217.68-25.55ZM242.98-9.45Q242.98-6.35 241.65-4.1 240.33-1.85 238.08-0.68 235.83 0.5 233.03 0.5L233.03 0.5Q229.88 0.5 227.45-1.03 225.03-2.55 223.68-5.45 222.33-8.35 222.33-12.4L222.33-12.4 222.33-13.15Q222.33-17.2 223.65-20.1 224.98-23 227.4-24.53 229.83-26.05 232.98-26.05L232.98-26.05Q235.83-26.05 238.1-24.83 240.38-23.6 241.68-21.28 242.98-18.95 242.98-15.7L242.98-15.7 242.98-12.5 224.88-12.5 224.88-12.1Q224.88-7.1 227.15-4.45 229.43-1.8 233.03-1.8L233.03-1.8Q236.23-1.8 238.35-3.75 240.48-5.7 240.48-9.45L240.48-9.45 242.98-9.45ZM232.98-23.75Q229.63-23.75 227.43-21.45 225.23-19.15 224.93-14.8L224.93-14.8 240.48-14.8 240.48-15.7Q240.48-19.6 238.35-21.68 236.23-23.75 232.98-23.75L232.98-23.75Z" opacity="1" transform="matrix(1,0,0,1,0,0)" fill="#000000" class="undefined-text-1" data-fill-palette-color="secondary" id="text-1"></path></svg></g></svg></g></svg></g></svg></g><g><svg viewBox="0 0 211.42747938257483 211.42747938257483" height="211.42747938257483" width="211.42747938257483"><g><svg></svg></g><g id="icon-0"><svg viewBox="0 0 211.42747938257483 211.42747938257483" height="211.42747938257483" width="211.42747938257483"><g><rect width="192.2423932904523" height="192.2423932904523" x="9.592543046061266" y="9.592543046061266" fill="#000000" data-fill-palette-color="accent"></rect><rect width="192.2423932904523" height="192.2423932904523" x="19.185086092122532" y="0" fill="#000000" opacity="0.5" data-fill-palette-color="accent"></rect></g><g transform="matrix(1,0,0,1,27.407265845889327,28.245968532754787)"><svg viewBox="0 0 156.61294769079618 154.93554231706526" height="154.93554231706526" width="156.61294769079618"><g><svg xmlns="http://www.w3.org/2000/svg" xmlns:xlink="http://www.w3.org/1999/xlink" version="1.0" x="0" y="0" viewBox="5.811491012573242 6.842561721801758 88.0436782836914 87.1006851196289" enable-background="new 0 0 100 100" xml:space="preserve" height="154.93554231706526" width="156.61294769079618" class="icon-s-0" data-fill-palette-color="background" id="s-0"><path d="M93.855 64.249c0 0-0.297-10.559-7.139-14.277 0 0 1.19-11.303-8.626-17.698 0 0-2.379-9.369-11.302-13.534 0 0-1.19-11.154-16.211-11.897h-1.487c-15.021 0.744-16.211 11.898-16.211 11.897-8.923 4.164-11.303 13.534-11.303 13.534-9.816 6.395-8.626 17.698-8.625 17.698-6.841 3.718-7.139 14.277-7.139 14.277s-0.149 6.246 4.313 9.072c0 0 2.23 16.062 17.326 18.441 0 0 18.043 4.908 44.765 0 15.03-2.76 17.326-18.441 17.326-18.441C94.003 70.495 93.855 64.249 93.855 64.249zM49.09 8.627h1.487c13.236 0.744 13.236 9.369 13.236 9.37-15.308-4.313-27.959 0-27.959 0S35.854 9.371 49.09 8.627zM49.833 18.02c-0.247-0.008-0.492-0.017-0.743-0.023h1.487C50.325 18.002 50.08 18.012 49.833 18.02c24.683 0.828 24.688 13.488 24.688 13.488-26.946-6.714-49.375 0-49.375 0S25.15 18.848 49.833 18.02zM23.212 34.058c0 0 9.397-3.941 26.621-3.42 18.134-0.632 26.621 3.421 26.621 3.42 8.923 5.057 7.436 14.426 7.436 14.426-34.27-9.184-68.114 0-68.114 0S14.289 39.115 23.212 34.058zM63.813 91.018c-14.806 1.385-27.959 0-27.959 0-19.78-1.19-22.308-16.359-22.308-16.359s11.451 3.123 33.908 3.718h4.759c22.457-0.595 33.908-3.718 33.908-3.718S83.543 89.173 63.813 91.018zM88.352 70.792c-1.645 1.747-4.369 1.989-4.369 1.99-8.671 1.495-16.936 2.309-24.535 2.675 1.005-5.013 2.794-19.317-9.615-18.949-12.446-0.369-10.609 14.023-9.605 18.995-13.583-0.592-22.712-2.334-24.545-2.721-3.429-0.725-4.369-1.989-4.368-1.99s-4.015-5.057-1.785-11.302 6.841-10.708 24.836-11.898c0 0 13.766-1.376 30.934 0 17.977 1.441 22.606 5.651 24.837 11.898C92.367 65.736 88.352 70.792 88.352 70.792z" fill="#ffffff" data-fill-palette-color="background"></path></svg></g></svg></g></svg></g></svg></g></svg></g><defs></defs></svg><rect width="395.52" height="135.16794291237332" fill="none" stroke="none" visibility="hidden"></rect></g></svg></g></svg>